<?xml version="1.0" encoding="utf-8"?>
<!-- Generator: Adobe Illustrator 21.1.0, SVG Export Plug-In . SVG Version: 6.00 Build 0)  -->
<svg version="1.1" id="Layer_1" xmlns="http://www.w3.org/2000/svg" xmlns:xlink="http://www.w3.org/1999/xlink" x="0px" y="0px"
	 viewBox="0 0 350 170" style="enable-background:new 0 0 350 170;" xml:space="preserve">
<style type="text/css">
	.st0{fill:url(#SVGID_1_);}
	.st1{fill:url(#SVGID_2_);}
	.st2{fill:#01579B;}
	.st3{fill:#81D4FA;}
</style>
<g>
	
		<linearGradient id="SVGID_1_" gradientUnits="userSpaceOnUse" x1="228.2639" y1="-728.6461" x2="311.936" y2="-776.954" gradientTransform="matrix(1 0 0 -1 -201 -686)">
		<stop  offset="0" style="stop-color:#E1F5FE"/>
		<stop  offset="1" style="stop-color:#03A9F4"/>
	</linearGradient>
	<circle class="st0" cx="69.1" cy="66.8" r="48.3"/>
	
		<linearGradient id="SVGID_2_" gradientUnits="userSpaceOnUse" x1="208.6194" y1="-716.5447" x2="250.465" y2="-740.704" gradientTransform="matrix(1 0 0 -1 -201 -686)">
		<stop  offset="0" style="stop-color:#80CFFF"/>
		<stop  offset="1" style="stop-color:#01579B"/>
	</linearGradient>
	<circle class="st1" cx="28.5" cy="42.6" r="24.2"/>
	<rect x="273" y="118.1" class="st2" width="9.1" height="2.8"/>
	<rect x="271" y="138.4" class="st2" width="11.1" height="2.7"/>
	<rect x="270.9" y="137" class="st2" width="2.7" height="5.1"/>
	<rect x="273" y="118.1" class="st2" width="2.7" height="3.9"/>
	<rect x="274" y="128.2" class="st2" width="8.1" height="3"/>
	<g>
		<path class="st2" d="M158.9,113.8h-4.1l-5.1-16.5h-22.9l-5.1,16.5h-4.1L134.9,56h6.6L158.9,113.8z M128.1,93.1h20.3l-10.2-33
			L128.1,93.1z"/>
		<path class="st2" d="M166.7,109.6h21.7v4.5H162V72.3h4.7V109.6z"/>
		<path class="st2" d="M224.1,72.3v4.5h-12.4v37.4H207V76.8h-12.4v-4.5H224.1z"/>
		<path class="st2" d="M270.5,101.4c0,8.3-4.1,12.4-12.4,12.4h-14.4c-8.3,0-12.4-4.1-12.4-12.4v-33c0-8.3,4.1-12.4,12.4-12.4h14.4
			c8.3,0,12.4,4.1,12.4,12.4V101.4z M235.5,101.4c0,5.5,2.8,8.3,8.3,8.3h14.4c5.5,0,8.3-2.8,8.3-8.3v-33c0-5.5-2.8-8.3-8.3-8.3
			h-14.4c-5.5,0-8.3,2.8-8.3,8.3L235.5,101.4L235.5,101.4z"/>
		<path class="st2" d="M282.5,95.4V143h-4.7V72.3h19.4c6.7,0,10.1,3.1,10.1,9.4V86c0,6.3-3.4,9.4-10.1,9.4H282.5z M282.5,76.8V91
			h14.7c3.6,0,5.4-1.6,5.4-4.9v-4.3c0-3.3-1.8-4.9-5.4-4.9L282.5,76.8L282.5,76.8z"/>
		<path class="st2" d="M343,72.3v4.5h-12.4v37.3h-4.7V76.8h-12.4v-4.5H343z"/>
	</g>
	<g>
		<path class="st3" d="M101.6,128.8v1.9h-9.2v6h9.2v1.9H90.3v-17.8h11.2v1.9h-9.2v6h9.3V128.8z"/>
		<path class="st3" d="M106.1,120.8l8.7,13.8v-13.8h2v17.8h-1.9l-8.7-13.8v13.8h-2v-17.8H106.1z"/>
		<path class="st3" d="M121.4,134.6c0,1.4,0.8,2.1,2.3,2.1h6.9v1.9h-6.9c-2.9,0-4.3-1.3-4.3-4v-9.8c0-2.7,1.4-4,4.3-4h6.9v1.9h-6.9
			c-1.5,0-2.3,0.7-2.3,2.1V134.6z"/>
		<path class="st3" d="M140.9,130.7h-5.6v7.9h-2v-17.8h8.3c2.9,0,4.3,1.3,4.3,4v1.8c0,2.4-1,3.7-3,3.9l3.1,8.1h-2.1L140.9,130.7z
			 M135.3,122.8v6h6.2c1.5,0,2.3-0.7,2.3-2.1v-1.8c0-1.4-0.8-2.1-2.3-2.1H135.3z"/>
		<path class="st3" d="M149.6,120.8l5,8.2l4.9-8.2h2.3l-6.2,10.2v7.6h-2V131l-6.2-10.2H149.6z"/>
		<path class="st3" d="M165.1,130.7v7.9h-2v-17.8h8.3c2.9,0,4.3,1.3,4.3,4v1.8c0,2.7-1.4,4-4.3,4h-6.3V130.7z M165.1,122.8v6h6.2
			c1.5,0,2.3-0.7,2.3-2.1v-1.8c0-1.4-0.8-2.1-2.3-2.1H165.1z"/>
		<path class="st3" d="M190.9,120.8v1.9h-5.3v15.9h-2v-15.9h-5.3v-1.9H190.9z"/>
		<path class="st3" d="M195.5,120.8v17.8h-2v-17.8H195.5z"/>
		<path class="st3" d="M211.4,134.6c0,2.7-1.4,4-4.3,4h-4.6c-2.9,0-4.3-1.3-4.3-4v-9.8c0-2.7,1.4-4,4.3-4h4.6c2.9,0,4.3,1.3,4.3,4
			V134.6z M200.2,134.6c0,1.4,0.8,2.1,2.3,2.1h4.6c1.5,0,2.3-0.7,2.3-2.1v-9.8c0-1.4-0.8-2.1-2.3-2.1h-4.6c-1.5,0-2.3,0.7-2.3,2.1
			V134.6z"/>
		<path class="st3" d="M215.9,120.8l8.7,13.8v-13.8h2v17.8h-1.9l-8.7-13.8v13.8h-2v-17.8H215.9z"/>
	</g>
</g>
</svg>
