<?xml version="1.0" encoding="utf-8"?>
<!-- Generator: Adobe Illustrator 16.0.0, SVG Export Plug-In . SVG Version: 6.00 Build 0)  -->
<!DOCTYPE svg PUBLIC "-//W3C//DTD SVG 1.1//EN" "http://www.w3.org/Graphics/SVG/1.1/DTD/svg11.dtd">
<svg version="1.1" id="Layer_1" xmlns="http://www.w3.org/2000/svg" xmlns:xlink="http://www.w3.org/1999/xlink" x="0px" y="0px"
	 width="69px" height="69px" viewBox="0 0 69 69" enable-background="new 0 0 69 69" xml:space="preserve">
<g>
	<path fill="#C1272D" d="M20.594,25.561v-3.377c0-7.943,6.463-14.406,14.407-14.406c7.942,0,14.406,6.463,14.406,14.406v3.377
		c-1.185,0.244-2.271,0.75-3.201,1.457v-4.834c0-6.179-5.026-11.205-11.205-11.205c-6.179,0-11.205,5.026-11.205,11.205v4.834
		C22.864,26.311,21.78,25.805,20.594,25.561z M51.008,26.984v6.404v9.604C51.008,51.834,43.843,59,35.001,59
		s-16.008-7.166-16.008-16.008v-9.604v-6.404c3.536,0,6.403,2.867,6.403,6.404h19.208C44.604,29.854,47.473,26.984,51.008,26.984z
		 M38.202,42.992c0-1.77-1.433-3.201-3.201-3.201c-1.769,0-3.202,1.432-3.202,3.201c0,1.173,0.663,2.154,1.601,2.711v5.293
		c0,0.885,0.717,1.602,1.602,1.602s1.6-0.717,1.6-1.602v-5.293C37.539,45.146,38.202,44.165,38.202,42.992z"/>
</g>
<rect id="_x3C_Slice_x3E_" fill="none" width="69" height="69"/>
</svg>
