<?xml version="1.0" encoding="utf-8"?>
<!-- Generator: Adobe Illustrator 21.1.0, SVG Export Plug-In . SVG Version: 6.00 Build 0)  -->
<svg version="1.1" id="Layer_1" xmlns="http://www.w3.org/2000/svg" xmlns:xlink="http://www.w3.org/1999/xlink" x="0px" y="0px"
	 viewBox="0 0 69 69" style="enable-background:new 0 0 69 69;" xml:space="preserve">
<style type="text/css">
	.st0{fill:#90A4AE;}
	.st1{fill:none;}
</style>
<g>
	<path class="st0" d="M20.6,25.6v-3.4c0-7.9,6.5-14.4,14.4-14.4c7.9,0,14.4,6.5,14.4,14.4v3.4c-1.2,0.2-2.3,0.8-3.2,1.5v-4.8
		C46.2,16,41.2,11,35,11s-11.2,5-11.2,11.2V27C22.9,26.3,21.8,25.8,20.6,25.6z M51,27v6.4V43c0,8.8-7.2,16-16,16s-16-7.2-16-16v-9.6
		V27c3.5,0,6.4,2.9,6.4,6.4h19.2C44.6,29.9,47.5,27,51,27z M38.2,43c0-1.8-1.4-3.2-3.2-3.2c-1.8,0-3.2,1.4-3.2,3.2
		c0,1.2,0.7,2.2,1.6,2.7V51c0,0.9,0.7,1.6,1.6,1.6s1.6-0.7,1.6-1.6v-5.3C37.5,45.1,38.2,44.2,38.2,43z"/>
</g>
<rect id="_x3C_Slice_x3E_" class="st1" width="69" height="69"/>
</svg>
