<?xml version="1.0" encoding="utf-8"?>
<!-- Generator: Adobe Illustrator 16.0.0, SVG Export Plug-In . SVG Version: 6.00 Build 0)  -->
<!DOCTYPE svg PUBLIC "-//W3C//DTD SVG 1.1//EN" "http://www.w3.org/Graphics/SVG/1.1/DTD/svg11.dtd">
<svg version="1.1" id="Layer_1" xmlns="http://www.w3.org/2000/svg" xmlns:xlink="http://www.w3.org/1999/xlink" x="0px" y="0px"
	 width="200px" height="200px" viewBox="0 0 200 200" enable-background="new 0 0 200 200" xml:space="preserve">
<g>
	<path fill="#FFFFFF" d="M156.616,86.093c-1.942,0-3.84,0.194-5.674,0.562c-5.65-16.961-21.763-29.207-40.77-29.207
		c-15.962,0-29.879,8.638-37.278,21.447c-0.435-0.017-0.87-0.033-1.309-0.033c-11.108,0-20.899,5.586-26.67,14.079
		c-1.543-0.292-3.134-0.451-4.762-0.451c-13.949,0-25.257,11.206-25.257,25.031c0,13.824,11.308,25.029,25.257,25.029h31.41h0.021
		h0.021h38.545h0.021h0.022h46.403h0.021c15.734,0,28.486-12.638,28.486-28.229c0-15.589-12.752-28.228-28.486-28.228H156.616z"/>
	<path fill="#231F20" d="M156.616,143.733H40.152c-14.578,0-26.438-11.759-26.438-26.213c0-14.452,11.86-26.212,26.439-26.212
		c1.399,0,2.816,0.114,4.223,0.338c6.253-8.759,16.366-13.966,27.209-13.966c0.217,0,0.432,0.003,0.647,0.009
		c7.938-13.234,22.405-21.424,37.942-21.424c18.73,0,35.301,11.628,41.557,29.044c1.611-0.266,3.251-0.399,4.888-0.399
		c16.358,0,29.667,13.193,29.667,29.411c-0.006,16.216-13.314,29.412-29.673,29.412L156.616,143.733z M40.152,93.673
		c-13.275,0-24.075,10.698-24.075,23.849c0,13.15,10.8,23.848,24.075,23.848h116.463c15.055,0,27.303-12.134,27.303-27.047
		c0-14.914-12.248-27.047-27.303-27.047c-1.826,0-3.657,0.181-5.441,0.539l-1.023,0.205l-0.33-0.991
		c-5.659-16.985-21.593-28.397-39.649-28.397c-14.931,0-28.822,7.992-36.254,20.856l-0.356,0.618l-0.713-0.028
		c-0.419-0.017-0.84-0.032-1.264-0.032c-10.315,0-19.921,5.069-25.691,13.561l-0.436,0.641l-0.762-0.144
		c-1.513-0.284-3.041-0.429-4.546-0.429L40.152,93.673z"/>
</g>
<g>
	<path fill="#C1272D" d="M128.465,160.13l-15.342-26.587c-6.248-10.17-10.17-16.773-13.918-23.732h-0.363
		c-3.385,6.959-6.784,13.388-13.032,23.914L71.361,160.13H53.52l36.764-60.846L54.951,39.87h18.015l15.88,28.192
		c4.46,7.846,7.86,13.919,11.056,20.34h0.553c3.385-7.141,6.42-12.668,10.868-20.34l16.416-28.192h17.842l-36.568,58.521
		l37.469,61.739H128.465z"/>
</g>
</svg>
